<svg xmlns="http://www.w3.org/2000/svg" xmlns:xlink="http://www.w3.org/1999/xlink" contentStyleType="text/css" data-diagram-type="SEQUENCE" height="560px" preserveAspectRatio="none" style="width:1472px;height:560px;background:#FFFFFF;" version="1.1" viewBox="0 0 1472 560" width="1472px" zoomAndPan="magnify"><defs/><g><g><title>User</title><rect fill="#000000" fill-opacity="0.00000" height="398.7266" width="8" x="19.9551" y="81.2969"/><line style="stroke:#181818;stroke-width:0.5;stroke-dasharray:5,5;" x1="23" x2="23" y1="81.2969" y2="480.0234"/></g><g><title>Web UI .S3.CloudFront.</title><rect fill="#000000" fill-opacity="0.00000" height="398.7266" width="8" x="227.6499" y="81.2969"/><line style="stroke:#181818;stroke-width:0.5;stroke-dasharray:5,5;" x1="231.2598" x2="231.2598" y1="81.2969" y2="480.0234"/></g><g><title>Amazon Cognito</title><rect fill="#000000" fill-opacity="0.00000" height="398.7266" width="8" x="448.8906" y="81.2969"/><line style="stroke:#181818;stroke-width:0.5;stroke-dasharray:5,5;" x1="452.3525" x2="452.3525" y1="81.2969" y2="480.0234"/></g><g><title>API Gateway</title><rect fill="#000000" fill-opacity="0.00000" height="398.7266" width="8" x="574.6504" y="81.2969"/><line style="stroke:#181818;stroke-width:0.5;stroke-dasharray:5,5;" x1="578.4287" x2="578.4287" y1="81.2969" y2="480.0234"/></g><g><title>AWS Lambda</title><rect fill="#000000" fill-opacity="0.00000" height="398.7266" width="8" x="839.1885" y="81.2969"/><line style="stroke:#181818;stroke-width:0.5;stroke-dasharray:5,5;" x1="842.6255" x2="842.6255" y1="81.2969" y2="480.0234"/></g><g><title>DynamoDB</title><rect fill="#000000" fill-opacity="0.00000" height="398.7266" width="8" x="1263.5859" y="81.2969"/><line style="stroke:#181818;stroke-width:0.5;stroke-dasharray:5,5;" x1="1267.0332" x2="1267.0332" y1="81.2969" y2="480.0234"/></g><g><title>External AI Service</title><rect fill="#000000" fill-opacity="0.00000" height="398.7266" width="8" x="1389.478" y="81.2969"/><line style="stroke:#181818;stroke-width:0.5;stroke-dasharray:5,5;" x1="1393.1387" x2="1393.1387" y1="81.2969" y2="480.0234"/></g><g class="participant participant-head" data-participant="User"><text fill="#000000" font-family="sans-serif" font-size="14" lengthAdjust="spacing" textLength="31.9102" x="5" y="77.9951">User</text><ellipse cx="23.9551" cy="13.5" fill="#E2E2F0" rx="8" ry="8" style="stroke:#181818;stroke-width:0.5;"/><path d="M23.9551,21.5 L23.9551,48.5 M10.9551,29.5 L36.9551,29.5 M23.9551,48.5 L10.9551,63.5 M23.9551,48.5 L36.9551,63.5" fill="none" style="stroke:#181818;stroke-width:0.5;"/></g><g class="participant participant-tail" data-participant="User"><text fill="#000000" font-family="sans-serif" font-size="14" lengthAdjust="spacing" textLength="31.9102" x="5" y="492.0186">User</text><ellipse cx="23.9551" cy="503.8203" fill="#E2E2F0" rx="8" ry="8" style="stroke:#181818;stroke-width:0.5;"/><path d="M23.9551,511.8203 L23.9551,538.8203 M10.9551,519.8203 L36.9551,519.8203 M23.9551,538.8203 L10.9551,553.8203 M23.9551,538.8203 L36.9551,553.8203" fill="none" style="stroke:#181818;stroke-width:0.5;"/></g><g class="participant participant-head" data-participant="WebUI"><rect fill="#E2E2F0" height="30.2969" rx="2.5" ry="2.5" style="stroke:#181818;stroke-width:0.5;" width="178.7803" x="142.2598" y="50"/><text fill="#000000" font-family="sans-serif" font-size="14" lengthAdjust="spacing" textLength="164.7803" x="149.2598" y="69.9951">Web UI (S3/CloudFront)</text></g><g class="participant participant-tail" data-participant="WebUI"><rect fill="#E2E2F0" height="30.2969" rx="2.5" ry="2.5" style="stroke:#181818;stroke-width:0.5;" width="178.7803" x="142.2598" y="479.0234"/><text fill="#000000" font-family="sans-serif" font-size="14" lengthAdjust="spacing" textLength="164.7803" x="149.2598" y="499.0186">Web UI (S3/CloudFront)</text></g><g class="participant participant-head" data-participant="Cognito"><rect fill="#E2E2F0" height="30.2969" rx="2.5" ry="2.5" style="stroke:#181818;stroke-width:0.5;" width="129.0762" x="388.3525" y="50"/><text fill="#000000" font-family="sans-serif" font-size="14" lengthAdjust="spacing" textLength="115.0762" x="395.3525" y="69.9951">Amazon Cognito</text></g><g class="participant participant-tail" data-participant="Cognito"><rect fill="#E2E2F0" height="30.2969" rx="2.5" ry="2.5" style="stroke:#181818;stroke-width:0.5;" width="129.0762" x="388.3525" y="479.0234"/><text fill="#000000" font-family="sans-serif" font-size="14" lengthAdjust="spacing" textLength="115.0762" x="395.3525" y="499.0186">Amazon Cognito</text></g><g class="participant participant-head" data-participant="APIGW"><rect fill="#E2E2F0" height="30.2969" rx="2.5" ry="2.5" style="stroke:#181818;stroke-width:0.5;" width="102.4434" x="527.4287" y="50"/><text fill="#000000" font-family="sans-serif" font-size="14" lengthAdjust="spacing" textLength="88.4434" x="534.4287" y="69.9951">API Gateway</text></g><g class="participant participant-tail" data-participant="APIGW"><rect fill="#E2E2F0" height="30.2969" rx="2.5" ry="2.5" style="stroke:#181818;stroke-width:0.5;" width="102.4434" x="527.4287" y="479.0234"/><text fill="#000000" font-family="sans-serif" font-size="14" lengthAdjust="spacing" textLength="88.4434" x="534.4287" y="499.0186">API Gateway</text></g><g class="participant participant-head" data-participant="Lambda"><rect fill="#E2E2F0" height="30.2969" rx="2.5" ry="2.5" style="stroke:#181818;stroke-width:0.5;" width="107.126" x="789.6255" y="50"/><text fill="#000000" font-family="sans-serif" font-size="14" lengthAdjust="spacing" textLength="93.126" x="796.6255" y="69.9951">AWS Lambda</text></g><g class="participant participant-tail" data-participant="Lambda"><rect fill="#E2E2F0" height="30.2969" rx="2.5" ry="2.5" style="stroke:#181818;stroke-width:0.5;" width="107.126" x="789.6255" y="479.0234"/><text fill="#000000" font-family="sans-serif" font-size="14" lengthAdjust="spacing" textLength="93.126" x="796.6255" y="499.0186">AWS Lambda</text></g><g class="participant participant-head" data-participant="Dynamo"><text fill="#000000" font-family="sans-serif" font-size="14" lengthAdjust="spacing" textLength="79.1055" x="1225.0332" y="77.9951">DynamoDB</text><path d="M1249.5859,29 C1249.5859,19 1267.5859,19 1267.5859,19 C1267.5859,19 1285.5859,19 1285.5859,29 L1285.5859,55 C1285.5859,65 1267.5859,65 1267.5859,65 C1267.5859,65 1249.5859,65 1249.5859,55 L1249.5859,29" fill="#E2E2F0" style="stroke:#181818;stroke-width:0.5;"/><path d="M1249.5859,29 C1249.5859,39 1267.5859,39 1267.5859,39 C1267.5859,39 1285.5859,39 1285.5859,29" fill="none" style="stroke:#181818;stroke-width:0.5;"/></g><g class="participant participant-tail" data-participant="Dynamo"><text fill="#000000" font-family="sans-serif" font-size="14" lengthAdjust="spacing" textLength="79.1055" x="1225.0332" y="492.0186">DynamoDB</text><path d="M1249.5859,505.3203 C1249.5859,495.3203 1267.5859,495.3203 1267.5859,495.3203 C1267.5859,495.3203 1285.5859,495.3203 1285.5859,505.3203 L1285.5859,531.3203 C1285.5859,541.3203 1267.5859,541.3203 1267.5859,541.3203 C1267.5859,541.3203 1249.5859,541.3203 1249.5859,531.3203 L1249.5859,505.3203" fill="#E2E2F0" style="stroke:#181818;stroke-width:0.5;"/><path d="M1249.5859,505.3203 C1249.5859,515.3203 1267.5859,515.3203 1267.5859,515.3203 C1267.5859,515.3203 1285.5859,515.3203 1285.5859,505.3203" fill="none" style="stroke:#181818;stroke-width:0.5;"/></g><g class="participant participant-head" data-participant="AI"><rect fill="#E2E2F0" height="30.2969" rx="2.5" ry="2.5" style="stroke:#181818;stroke-width:0.5;" width="146.6787" x="1320.1387" y="50"/><text fill="#000000" font-family="sans-serif" font-size="14" lengthAdjust="spacing" textLength="132.6787" x="1327.1387" y="69.9951">External AI Service</text></g><g class="participant participant-tail" data-participant="AI"><rect fill="#E2E2F0" height="30.2969" rx="2.5" ry="2.5" style="stroke:#181818;stroke-width:0.5;" width="146.6787" x="1320.1387" y="479.0234"/><text fill="#000000" font-family="sans-serif" font-size="14" lengthAdjust="spacing" textLength="132.6787" x="1327.1387" y="499.0186">External AI Service</text></g><g class="message" data-participant-1="User" data-participant-2="WebUI"><polygon fill="#181818" points="219.6499,108.4297,229.6499,112.4297,219.6499,116.4297,223.6499,112.4297" style="stroke:#181818;stroke-width:1;"/><line style="stroke:#181818;stroke-width:1;" x1="23.9551" x2="225.6499" y1="112.4297" y2="112.4297"/><text fill="#000000" font-family="sans-serif" font-size="13" lengthAdjust="spacing" textLength="183.6948" x="30.9551" y="107.3638">Access via browser/QR code</text></g><g class="message" data-participant-1="WebUI" data-participant-2="Cognito"><polygon fill="#181818" points="440.8906,137.5625,450.8906,141.5625,440.8906,145.5625,444.8906,141.5625" style="stroke:#181818;stroke-width:1;"/><line style="stroke:#181818;stroke-width:1;" x1="231.6499" x2="446.8906" y1="141.5625" y2="141.5625"/><text fill="#000000" font-family="sans-serif" font-size="13" lengthAdjust="spacing" textLength="177.3154" x="238.6499" y="136.4966">Authenticate (login/signup)</text></g><g class="message" data-participant-1="Cognito" data-participant-2="WebUI"><polygon fill="#181818" points="242.6499,166.6953,232.6499,170.6953,242.6499,174.6953,238.6499,170.6953" style="stroke:#181818;stroke-width:1;"/><line style="stroke:#181818;stroke-width:1;" x1="236.6499" x2="451.8906" y1="170.6953" y2="170.6953"/><text fill="#000000" font-family="sans-serif" font-size="13" lengthAdjust="spacing" textLength="197.2407" x="248.6499" y="165.6294">Return token (OAuth callback)</text></g><g class="message" data-participant-1="User" data-participant-2="WebUI"><polygon fill="#181818" points="219.6499,195.8281,229.6499,199.8281,219.6499,203.8281,223.6499,199.8281" style="stroke:#181818;stroke-width:1;"/><line style="stroke:#181818;stroke-width:1;" x1="23.9551" x2="225.6499" y1="199.8281" y2="199.8281"/><text fill="#000000" font-family="sans-serif" font-size="13" lengthAdjust="spacing" textLength="119.1709" x="30.9551" y="194.7622">Enter chat prompt</text></g><g class="message" data-participant-1="WebUI" data-participant-2="APIGW"><polygon fill="#181818" points="566.6504,224.9609,576.6504,228.9609,566.6504,232.9609,570.6504,228.9609" style="stroke:#181818;stroke-width:1;"/><line style="stroke:#181818;stroke-width:1;" x1="231.6499" x2="572.6504" y1="228.9609" y2="228.9609"/><text fill="#000000" font-family="sans-serif" font-size="13" lengthAdjust="spacing" textLength="221.5586" x="238.6499" y="223.895">Send prompt (with Cognito token)</text></g><g class="message" data-participant-1="APIGW" data-participant-2="Lambda"><polygon fill="#181818" points="831.1885,254.0938,841.1885,258.0938,831.1885,262.0938,835.1885,258.0938" style="stroke:#181818;stroke-width:1;"/><line style="stroke:#181818;stroke-width:1;" x1="578.6504" x2="837.1885" y1="258.0938" y2="258.0938"/><text fill="#000000" font-family="sans-serif" font-size="13" lengthAdjust="spacing" textLength="240.5381" x="585.6504" y="253.0278">Invoke Lambda (pass prompt, token)</text></g><g class="message" data-participant-1="Lambda" data-participant-2="Dynamo"><polygon fill="#181818" points="1255.5859,283.2266,1265.5859,287.2266,1255.5859,291.2266,1259.5859,287.2266" style="stroke:#181818;stroke-width:1;"/><line style="stroke:#181818;stroke-width:1;" x1="843.1885" x2="1261.5859" y1="287.2266" y2="287.2266"/><text fill="#000000" font-family="sans-serif" font-size="13" lengthAdjust="spacing" textLength="400.3975" x="850.1885" y="282.1606">Read/write session/conversation/animal/knowledge/user data</text></g><g class="message" data-participant-1="Lambda" data-participant-2="AI"><polygon fill="#181818" points="1381.478,312.3594,1391.478,316.3594,1381.478,320.3594,1385.478,316.3594" style="stroke:#181818;stroke-width:1;"/><line style="stroke:#181818;stroke-width:1;" x1="843.1885" x2="1387.478" y1="316.3594" y2="316.3594"/><text fill="#000000" font-family="sans-serif" font-size="13" lengthAdjust="spacing" textLength="138.0425" x="850.1885" y="311.2935">Send prompt/context</text></g><g class="message" data-participant-1="AI" data-participant-2="Lambda"><polygon fill="#181818" points="854.1885,341.4922,844.1885,345.4922,854.1885,349.4922,850.1885,345.4922" style="stroke:#181818;stroke-width:1;"/><line style="stroke:#181818;stroke-width:1;" x1="848.1885" x2="1392.478" y1="345.4922" y2="345.4922"/><text fill="#000000" font-family="sans-serif" font-size="13" lengthAdjust="spacing" textLength="124.2744" x="860.1885" y="340.4263">Return AI response</text></g><g class="message" data-participant-1="Lambda" data-participant-2="Dynamo"><polygon fill="#181818" points="1255.5859,370.625,1265.5859,374.625,1255.5859,378.625,1259.5859,374.625" style="stroke:#181818;stroke-width:1;"/><line style="stroke:#181818;stroke-width:1;" x1="843.1885" x2="1261.5859" y1="374.625" y2="374.625"/><text fill="#000000" font-family="sans-serif" font-size="13" lengthAdjust="spacing" textLength="187.7319" x="850.1885" y="369.5591">Update conversation/session</text></g><g class="message" data-participant-1="Lambda" data-participant-2="APIGW"><polygon fill="#181818" points="589.6504,399.7578,579.6504,403.7578,589.6504,407.7578,585.6504,403.7578" style="stroke:#181818;stroke-width:1;"/><line style="stroke:#181818;stroke-width:1;" x1="583.6504" x2="842.1885" y1="403.7578" y2="403.7578"/><text fill="#000000" font-family="sans-serif" font-size="13" lengthAdjust="spacing" textLength="107.415" x="595.6504" y="398.6919">Return response</text></g><g class="message" data-participant-1="APIGW" data-participant-2="WebUI"><polygon fill="#181818" points="242.6499,428.8906,232.6499,432.8906,242.6499,436.8906,238.6499,432.8906" style="stroke:#181818;stroke-width:1;"/><line style="stroke:#181818;stroke-width:1;" x1="236.6499" x2="577.6504" y1="432.8906" y2="432.8906"/><text fill="#000000" font-family="sans-serif" font-size="13" lengthAdjust="spacing" textLength="107.415" x="248.6499" y="427.8247">Return response</text></g><g class="message" data-participant-1="WebUI" data-participant-2="User"><polygon fill="#181818" points="34.9551,458.0234,24.9551,462.0234,34.9551,466.0234,30.9551,462.0234" style="stroke:#181818;stroke-width:1;"/><line style="stroke:#181818;stroke-width:1;" x1="28.9551" x2="230.6499" y1="462.0234" y2="462.0234"/><text fill="#000000" font-family="sans-serif" font-size="13" lengthAdjust="spacing" textLength="138.8359" x="40.9551" y="456.9575">Display chatbot reply</text></g><!--SRC=[RL71Rjim3BtxAuYS76233xlrCC1hki90WMuDWfnfcKY5o9GWoN6phnyjELcSzIQAZu_lFQAAriCka2yS-gYLTiWHLdjgOTT0kVrMFHexT3-zvRXU0GQGrgvPekiU_rY6HtjW7Mr2pUyxtAy6dZ7IYES4alfvVmVPR-45-xR3XCZFeiE8BGQ2rURCsDlDZzJDnPBWwIEIPpHGDx0bVzAAygwcA2QVyFLxjW0FK2j58S198xJUZjAjVh-1iXqL6IBOsSY47k8xiMmI1r0QUz1S1NtWmQsB2-g6_8tYu1cYFH93-JfDWq9ZMbJ7zNzIdbXaWth72CxRtiL_2b9A0jaITtCJob4BtMLhsh4kCb0cSceoql19MfUwT2XkCyENoz3SawcSPbAENJLwBJQ3vACjLyhoYNp0E1N8kaTJ7TcEXhe3LSDaPhhH3LlTB2LF594-Ob4t2ubpJFBhAJZBWJwJj7FTbFf2ngpjTkUSrCnv9Rm6StURA-2QTJhB0snqS0RFwHwjZG9qvlmN]--></g></svg>